<?xml version="1.0" encoding="UTF-8"?>
<svg width="1800px" height="1024px" viewBox="0 0 1800 1024" version="1.1" xmlns="http://www.w3.org/2000/svg" xmlns:xlink="http://www.w3.org/1999/xlink">
    <!-- Generator: Sketch 51.3 (57544) - http://www.bohemiancoding.com/sketch -->
    <title>logo1</title>
    <desc>Created with Sketch.</desc>
    <defs></defs>
    <g id="logo1" stroke="none" stroke-width="1" fill="none" fill-rule="evenodd">
        <g id="Group" transform="translate(523.000000, 422.000000)" fill="#FFFFFF">
            <path d="M211.091556,143 L193.811556,143 L193.811556,133.64 C188.627556,139.832 180.707556,144.584 169.187556,144.584 C154.787556,144.584 142.115556,136.376 142.115556,121.112 L142.115556,120.824 C142.115556,104.408 155.219556,96.344 172.931556,96.344 C182.147556,96.344 188.051556,97.64 193.955556,99.512 L193.955556,97.64 C193.955556,87.128 187.331556,81.368 175.235556,81.368 C166.739556,81.368 160.403556,83.24 153.491556,86.12 L148.739556,72.152 C157.091556,68.408 165.299556,65.816 177.683556,65.816 C200.147556,65.816 211.091556,77.624 211.091556,97.928 L211.091556,143 Z M194.243556,115.496 L194.243556,110.744 C189.779556,109.016 183.587556,107.72 176.819556,107.72 C165.875556,107.72 159.395556,112.184 159.395556,119.96 L159.395556,120.248 C159.395556,127.448 165.875556,131.48 174.083556,131.48 C185.603556,131.48 194.243556,125 194.243556,115.496 Z M297.623111,130.472 C290.135111,138.824 281.351111,144.728 266.519111,144.728 C243.911111,144.728 227.207111,127.016 227.207111,105.272 C227.207111,83.528 243.911111,65.384 266.663111,65.384 C281.063111,65.384 289.991111,70.712 297.047111,78.488 L286.247111,90.152 C280.919111,84.536 275.303111,80.648 266.519111,80.648 C253.847111,80.648 244.631111,91.592 244.631111,104.984 C244.631111,118.664 253.991111,129.608 267.383111,129.608 C275.591111,129.608 281.639111,125.72 287.111111,120.104 L297.623111,130.472 Z M367.450667,120.536 C367.450667,136.52 355.066667,144.44 339.226667,144.44 C328.426667,144.44 316.474667,140.552 306.970667,133.064 L314.746667,121.256 C322.954667,127.448 331.882667,130.616 339.658667,130.616 C347.146667,130.616 351.466667,127.448 351.466667,122.408 L351.466667,122.12 C351.466667,116.216 343.402667,114.2 334.474667,111.464 C323.242667,108.296 310.714667,103.688 310.714667,89.144 L310.714667,88.856 C310.714667,74.456 322.666667,65.672 337.786667,65.672 C347.290667,65.672 357.658667,68.984 365.722667,74.312 L358.810667,86.696 C351.466667,82.232 343.690667,79.496 337.354667,79.496 C330.586667,79.496 326.698667,82.664 326.698667,87.128 L326.698667,87.416 C326.698667,92.888 334.906667,95.192 343.834667,98.072 C354.922667,101.528 367.450667,106.568 367.450667,120.248 L367.450667,120.536 Z M448.510222,143 L431.230222,143 L431.230222,133.64 C426.046222,139.832 418.126222,144.584 406.606222,144.584 C392.206222,144.584 379.534222,136.376 379.534222,121.112 L379.534222,120.824 C379.534222,104.408 392.638222,96.344 410.350222,96.344 C419.566222,96.344 425.470222,97.64 431.374222,99.512 L431.374222,97.64 C431.374222,87.128 424.750222,81.368 412.654222,81.368 C404.158222,81.368 397.822222,83.24 390.910222,86.12 L386.158222,72.152 C394.510222,68.408 402.718222,65.816 415.102222,65.816 C437.566222,65.816 448.510222,77.624 448.510222,97.928 L448.510222,143 Z M431.662222,115.496 L431.662222,110.744 C427.198222,109.016 421.006222,107.72 414.238222,107.72 C403.294222,107.72 396.814222,112.184 396.814222,119.96 L396.814222,120.248 C396.814222,127.448 403.294222,131.48 411.502222,131.48 C423.022222,131.48 431.662222,125 431.662222,115.496 Z M535.041778,130.472 C527.553778,138.824 518.769778,144.728 503.937778,144.728 C481.329778,144.728 464.625778,127.016 464.625778,105.272 C464.625778,83.528 481.329778,65.384 504.081778,65.384 C518.481778,65.384 527.409778,70.712 534.465778,78.488 L523.665778,90.152 C518.337778,84.536 512.721778,80.648 503.937778,80.648 C491.265778,80.648 482.049778,91.592 482.049778,104.984 C482.049778,118.664 491.409778,129.608 504.801778,129.608 C513.009778,129.608 519.057778,125.72 524.529778,120.104 L535.041778,130.472 Z M655.112889,130.472 C647.624889,138.824 638.840889,144.728 624.008889,144.728 C601.400889,144.728 584.696889,127.016 584.696889,105.272 C584.696889,83.528 601.400889,65.384 624.152889,65.384 C638.552889,65.384 647.480889,70.712 654.536889,78.488 L643.736889,90.152 C638.408889,84.536 632.792889,80.648 624.008889,80.648 C611.336889,80.648 602.120889,91.592 602.120889,104.984 C602.120889,118.664 611.480889,129.608 624.872889,129.608 C633.080889,129.608 639.128889,125.72 644.600889,120.104 L655.112889,130.472 Z M747.548445,104.984 C747.548445,126.728 730.268445,144.728 706.796445,144.728 C683.612445,144.728 666.476445,127.016 666.476445,105.272 C666.476445,83.384 683.756445,65.384 707.084445,65.384 C730.412445,65.384 747.548445,83.096 747.548445,104.984 Z M730.124445,105.272 C730.124445,91.736 720.476445,80.648 706.796445,80.648 C692.828445,80.648 683.900445,91.592 683.900445,104.984 C683.900445,118.52 693.548445,129.608 707.084445,129.608 C721.196445,129.608 730.124445,118.664 730.124445,105.272 Z" id="macsac.co"></path>
            <path d="M32,87.4147104 L32,74.0234515 C36.5238831,69.1744343 42.5303825,65.384 51.552,65.384 C62.496,65.384 70.128,70.712 74.16,78.776 C80.352,70.712 88.416,65.384 99.936,65.384 C116.496,65.384 126.576,75.896 126.576,94.472 L126.576,143 L109.152,143 L109.152,99.8 C109.152,87.704 103.536,81.224 93.744,81.224 C84.24,81.224 77.472,87.848 77.472,100.088 L77.472,143 L60.048,143 L60.048,99.656 C60.048,87.848 54.288,81.224 44.64,81.224 C39.2940918,81.224 34.8766157,83.4345529 32,87.4147104 Z" id="Combined-Shape"></path>
            <g id="Group-2" transform="translate(13.000000, 52.000000)" fill-rule="nonzero">
                <path d="M31.0576923,60.5122378 L31.0576923,55.0576923 L37.1730769,55.0576923 L37.1730769,64.6031469 L32.0769231,64.6031469 L32.0769231,70.0576923 L25.9615385,70.0576923 L25.9615385,64.6031469 L19.8461538,64.6031469 L19.8461538,70.0576923 L13.7307692,70.0576923 L13.7307692,64.6031469 L7.61538462,64.6031469 L7.61538462,70.0576923 L1.5,70.0576923 L1.5,64.6031469 L-3.59615385,64.6031469 L-3.59615385,70.0576923 L-9.71153846,70.0576923 L-9.71153846,64.6031469 L-15.8269231,64.6031469 L-15.8269231,70.0576923 L-21.9423077,70.0576923 L-21.9423077,60.5122378 L-15.8269231,60.5122378 L-15.8269231,55.0576923 L-9.71153846,55.0576923 L-9.71153846,60.5122378 L-3.59615385,60.5122378 L-3.59615385,55.0576923 L2.51923077,55.0576923 L2.51923077,60.5122378 L7.61538462,60.5122378 L7.61538462,55.0576923 L13.7307692,55.0576923 L13.7307692,60.5122378 L19.8461538,60.5122378 L19.8461538,55.0576923 L25.9615385,55.0576923 L25.9615385,60.5122378 L31.0576923,60.5122378 Z" id="Combined-Shape" transform="translate(7.615385, 62.557692) rotate(90.000000) translate(-7.615385, -62.557692) "></path>
                <path d="M4.07836141,2.27373675e-13 L12.8437355,2.27817765e-13 C13.8905465,2.27625469e-13 14.7602582,0.807207469 14.8381861,1.85111382 L16.6960783,26.7390797 C16.7783059,27.8405843 15.9520186,28.8001889 14.850514,28.8824164 C14.8009714,28.8861148 14.7513082,28.8879659 14.7016278,28.8879659 L2,28.8879659 C0.8954305,28.8879659 2.00450396e-15,27.9925354 8.8817842e-16,26.8879659 C8.32035561e-16,26.8324143 0.00231448624,26.7768868 0.00693743749,26.7215279 L2.08529885,1.83356196 C2.17185025,0.797126061 3.0383179,2.28008818e-13 4.07836141,2.27817765e-13 Z M6.27619433,15 C5.83043496,15 5.66879184,15.0464128 5.50582888,15.1335664 C5.34286592,15.2207199 5.21497163,15.3486142 5.12781808,15.5115771 C5.04066454,15.6745401 4.99425173,15.8361832 4.99425173,16.2819426 L4.99425173,23.3473794 C4.99425173,23.7931387 5.04066454,23.9547819 5.12781808,24.1177448 C5.21497163,24.2807078 5.34286592,24.4086021 5.50582888,24.4957556 C5.66879184,24.5829092 5.83043496,24.629322 6.27619433,24.629322 L10.6840343,24.629322 C11.1297937,24.629322 11.2914368,24.5829092 11.4543998,24.4957556 C11.6173627,24.4086021 11.745257,24.2807078 11.8324105,24.1177448 C11.9195641,23.9547819 11.9659769,23.7931387 11.9659769,23.3473794 L11.9659769,16.2819426 C11.9659769,15.8361832 11.9195641,15.6745401 11.8324105,15.5115771 C11.745257,15.3486142 11.6173627,15.2207199 11.4543998,15.1335664 C11.2914368,15.0464128 11.1297937,15 10.6840343,15 L6.27619433,15 Z" id="Combined-Shape" transform="translate(8.350860, 14.443983) scale(1, -1) translate(-8.350860, -14.443983) "></path>
            </g>
            <circle id="Oval" fill-rule="nonzero" cx="558.5" cy="134.5" r="9.5"></circle>
        </g>
    </g>
</svg>