    <?xml version="1.0" encoding="UTF-8"?>
<svg width="1800px" height="1024px" viewBox="0 0 1800 1024" version="1.1" xmlns="http://www.w3.org/2000/svg" xmlns:xlink="http://www.w3.org/1999/xlink">
    <!-- Generator: Sketch 51.3 (57544) - http://www.bohemiancoding.com/sketch -->
    <title>logo1</title>
    <desc>Created with Sketch.</desc>
    <defs></defs>
    <g id="logo1" stroke="none" stroke-width="1" fill="none" fill-rule="evenodd">
        <g id="Group" transform="translate(176.000000, 422.000000)" fill="#000000">
            <path d="M405.498728,193.689655 L372.304893,193.689655 L372.304893,175.758621 C362.346742,187.62069 347.1329,196.724138 325.003676,196.724138 C297.342146,196.724138 273,181 273,151.758621 L273,151.206897 C273,119.758621 298.171992,104.310345 332.195674,104.310345 C349.899053,104.310345 361.240281,106.793103 372.581508,110.37931 L372.581508,106.793103 C372.581508,86.6551724 359.857204,75.6206897 336.621519,75.6206897 C320.301216,75.6206897 308.130143,79.2068966 294.852609,84.7241379 L285.724304,57.9655172 C301.767991,50.7931034 317.535063,45.8275862 341.323979,45.8275862 C384.475966,45.8275862 405.498728,68.4482759 405.498728,107.344828 L405.498728,193.689655 Z M373.134738,141 L373.134738,131.896552 C364.559664,128.586207 352.665206,126.103448 339.664287,126.103448 C318.641524,126.103448 306.193836,134.655172 306.193836,149.551724 L306.193836,150.103448 C306.193836,163.896552 318.641524,171.62069 334.408596,171.62069 C356.53782,171.62069 373.134738,159.206897 373.134738,141 Z M571.720619,169.689655 C557.336623,185.689655 540.46309,197 511.971714,197 C468.543112,197 436.455737,163.068966 436.455737,121.413793 C436.455737,79.7586207 468.543112,45 512.248329,45 C539.909859,45 557.060008,55.2068966 570.614157,70.1034483 L549.86801,92.4482759 C539.633244,81.6896552 528.845247,74.2413793 511.971714,74.2413793 C487.629568,74.2413793 469.926188,95.2068966 469.926188,120.862069 C469.926188,147.068966 487.906183,168.034483 513.631406,168.034483 C529.398478,168.034483 541.01632,160.586207 551.527702,149.827586 L571.720619,169.689655 Z M705.855134,150.655172 C705.855134,181.275862 682.066218,196.448276 651.638535,196.448276 C630.892388,196.448276 607.933318,189 589.676708,174.655172 L604.613934,152.034483 C620.381006,163.896552 637.531155,169.965517 652.468381,169.965517 C666.852377,169.965517 675.150836,163.896552 675.150836,154.241379 L675.150836,153.689655 C675.150836,142.37931 659.660379,138.517241 642.51023,133.275862 C620.934237,127.206897 596.868706,118.37931 596.868706,90.5172414 L596.868706,89.9655172 C596.868706,62.3793103 619.827776,45.5517241 648.872382,45.5517241 C667.128992,45.5517241 687.045294,51.8965517 702.53575,62.1034483 L689.258216,85.8275862 C675.150836,77.2758621 660.213609,72.0344828 648.042536,72.0344828 C635.041617,72.0344828 627.573004,78.1034483 627.573004,86.6551724 L627.573004,87.2068966 C627.573004,97.6896552 643.340076,102.103448 660.490225,107.62069 C681.789603,114.241379 705.855134,123.896552 705.855134,150.103448 L705.855134,150.655172 Z M861.565643,193.689655 L828.371807,193.689655 L828.371807,175.758621 C818.413656,187.62069 803.199814,196.724138 781.07059,196.724138 C753.40906,196.724138 729.066914,181 729.066914,151.758621 L729.066914,151.206897 C729.066914,119.758621 754.238906,104.310345 788.262588,104.310345 C805.965967,104.310345 817.307195,106.793103 828.648422,110.37931 L828.648422,106.793103 C828.648422,86.6551724 815.924118,75.6206897 792.688433,75.6206897 C776.36813,75.6206897 764.197057,79.2068966 750.919523,84.7241379 L741.791218,57.9655172 C757.834905,50.7931034 773.601977,45.8275862 797.390893,45.8275862 C840.54288,45.8275862 861.565643,68.4482759 861.565643,107.344828 L861.565643,193.689655 Z M829.201653,141 L829.201653,131.896552 C820.626578,128.586207 808.73212,126.103448 795.731201,126.103448 C774.708439,126.103448 762.26075,134.655172 762.26075,149.551724 L762.26075,150.103448 C762.26075,163.896552 774.708439,171.62069 790.475511,171.62069 C812.604735,171.62069 829.201653,159.206897 829.201653,141 Z M1027.78753,169.689655 C1013.40354,185.689655 996.530004,197 968.038628,197 C924.610026,197 892.522651,163.068966 892.522651,121.413793 C892.522651,79.7586207 924.610026,45 968.315243,45 C995.976773,45 1013.12692,55.2068966 1026.68107,70.1034483 L1005.93492,92.4482759 C995.700158,81.6896552 984.912161,74.2413793 968.038628,74.2413793 C943.696482,74.2413793 925.993102,95.2068966 925.993102,120.862069 C925.993102,147.068966 943.973097,168.034483 969.69832,168.034483 C985.465392,168.034483 997.083234,160.586207 1007.59462,149.827586 L1027.78753,169.689655 Z M1258.43688,169.689655 C1244.05289,185.689655 1227.17935,197 1198.68798,197 C1155.25938,197 1123.172,163.068966 1123.172,121.413793 C1123.172,79.7586207 1155.25938,45 1198.96459,45 C1226.62612,45 1243.77627,55.2068966 1257.33042,70.1034483 L1236.58427,92.4482759 C1226.34951,81.6896552 1215.56151,74.2413793 1198.68798,74.2413793 C1174.34583,74.2413793 1156.64245,95.2068966 1156.64245,120.862069 C1156.64245,147.068966 1174.62245,168.034483 1200.34767,168.034483 C1216.11474,168.034483 1227.73258,160.586207 1238.24397,149.827586 L1258.43688,169.689655 Z M1436,120.862069 C1436,162.517241 1402.80616,197 1357.71787,197 C1313.18281,197 1280.26559,163.068966 1280.26559,121.413793 C1280.26559,79.4827586 1313.45942,45 1358.2711,45 C1403.08278,45 1436,78.9310345 1436,120.862069 Z M1402.52955,121.413793 C1402.52955,95.4827586 1383.99632,74.2413793 1357.71787,74.2413793 C1330.88619,74.2413793 1313.73604,95.2068966 1313.73604,120.862069 C1313.73604,146.793103 1332.26926,168.034483 1358.2711,168.034483 C1385.3794,168.034483 1402.52955,147.068966 1402.52955,121.413793 Z" id="macsac.co"></path>
            <path d="M60.9462835,87.3668941 L60.9462835,61.6427198 C69.6581075,52.3065074 81.2287077,45 98.6254441,45 C119.68584,45 134.372695,55.2282004 142.131788,70.7087199 C154.047538,55.2282004 169.565725,45 191.734563,45 C223.602267,45 243,65.1799629 243,100.840445 L243,194 L209.469633,194 L209.469633,111.068646 C209.469633,87.8478664 198.662324,75.4081633 179.818812,75.4081633 C161.529521,75.4081633 148.505329,88.1243043 148.505329,111.621521 L148.505329,194 L114.974962,194 L114.974962,110.792208 C114.974962,88.1243043 103.890543,75.4081633 85.3241414,75.4081633 C75.0032582,75.4081633 66.4806267,79.6793224 60.9462835,87.3668941 Z" id="Combined-Shape"></path>
            <g id="Group-2" transform="translate(25.000000, 20.000000)" fill-rule="nonzero">
                <path d="M61.8823529,115.439883 L61.8823529,105 L73.7533937,105 L73.7533937,123.269795 L63.8608597,123.269795 L63.8608597,133.709677 L51.989819,133.709677 L51.989819,123.269795 L40.1187783,123.269795 L40.1187783,133.709677 L28.2477376,133.709677 L28.2477376,123.269795 L16.3766968,123.269795 L16.3766968,133.709677 L4.50565611,133.709677 L4.50565611,123.269795 L-5.38687783,123.269795 L-5.38687783,133.709677 L-17.2579186,133.709677 L-17.2579186,123.269795 L-29.1289593,123.269795 L-29.1289593,133.709677 L-41,133.709677 L-41,115.439883 L-29.1289593,115.439883 L-29.1289593,105 L-17.2579186,105 L-17.2579186,115.439883 L-5.38687783,115.439883 L-5.38687783,105 L6.4841629,105 L6.4841629,115.439883 L16.3766968,115.439883 L16.3766968,105 L28.2477376,105 L28.2477376,115.439883 L40.1187783,115.439883 L40.1187783,105 L51.989819,105 L51.989819,115.439883 L61.8823529,115.439883 Z" id="Combined-Shape" transform="translate(16.376697, 119.354839) rotate(90.000000) translate(-16.376697, -119.354839) "></path>
                <path d="M8.18187499,1.1368589e-13 L24.9878629,1.12798659e-13 C27.0798619,1.14272434e-13 28.8185123,1.61199142 28.9764477,3.69802019 L32.5568933,50.9889657 C32.7236721,53.1918002 31.0731229,55.1127514 28.8702884,55.2795303 C28.7698082,55.2871377 28.6690764,55.2909455 28.5683086,55.2909455 L4.17655121,55.2909455 C1.96741221,55.2909455 0.176551212,53.5000845 0.176551212,51.2909455 C0.176551212,51.1782705 0.181312085,51.0656457 0.190821095,50.9533727 L4.19614488,3.66242714 C4.37153736,1.5915642 6.10359786,1.14068611e-13 8.18187499,1.13686838e-13 Z M12.4197818,28.7096774 C11.5282631,28.7096774 11.2049768,28.802503 10.8790509,28.9768101 C10.553125,29.1511172 10.2973364,29.4069058 10.1230293,29.7328317 C9.94872222,30.0587576 9.85589661,30.3820439 9.85589661,31.2735626 L9.85589661,44.5761074 C9.85589661,45.4676261 9.94872222,45.7909124 10.1230293,46.1168383 C10.2973364,46.4427642 10.553125,46.6985528 10.8790509,46.8728599 C11.2049768,47.047167 11.5282631,47.1399926 12.4197818,47.1399926 L20.8253603,47.1399926 C21.716879,47.1399926 22.0401652,47.047167 22.3660912,46.8728599 C22.6920171,46.6985528 22.9478057,46.4427642 23.1221128,46.1168383 C23.2964199,45.7909124 23.3892455,45.4676261 23.3892455,44.5761074 L23.3892455,31.2735626 C23.3892455,30.3820439 23.2964199,30.0587576 23.1221128,29.7328317 C22.9478057,29.4069058 22.6920171,29.1511172 22.3660912,28.9768101 C22.0401652,28.802503 21.716879,28.7096774 20.8253603,28.7096774 L12.4197818,28.7096774 Z" id="Combined-Shape" transform="translate(16.362775, 27.645473) scale(1, -1) translate(-16.362775, -27.645473) "></path>
            </g>
            <ellipse id="Oval" fill-rule="nonzero" cx="1073.5" cy="178" rx="18.5" ry="18"></ellipse>
        </g>
    </g>
</svg>